<svg xmlns="http://www.w3.org/2000/svg" width="1200" height="630" viewBox="0 0 1200 630">
  <defs>
    <linearGradient id="bg" x1="0%" y1="0%" x2="100%" y2="100%">
      <stop offset="0%" style="stop-color:#4f46e5"/>
      <stop offset="100%" style="stop-color:#7c3aed"/>
    </linearGradient>
  </defs>
  <rect width="1200" height="630" fill="url(#bg)"/>
  <rect x="80" y="120" width="340" height="400" rx="16" fill="rgba(255,255,255,0.1)"/>
  <rect x="100" y="140" width="300" height="180" rx="8" fill="rgba(255,255,255,0.15)"/>
  <rect x="100" y="340" width="200" height="16" rx="4" fill="rgba(255,255,255,0.2)"/>
  <rect x="100" y="370" width="260" height="12" rx="4" fill="rgba(255,255,255,0.12)"/>
  <rect x="100" y="394" width="180" height="12" rx="4" fill="rgba(255,255,255,0.12)"/>
  <rect x="100" y="440" width="100" height="36" rx="8" fill="rgba(255,255,255,0.25)"/>
  <circle cx="250" cy="230" r="40" fill="rgba(255,255,255,0.2)"/>
  <polygon points="238,210 238,250 272,230" fill="rgba(255,255,255,0.5)"/>
  <rect x="500" y="160" width="600" height="60" rx="8" fill="rgba(255,255,255,0.1)"/>
  <rect x="520" y="178" width="24" height="24" rx="4" fill="rgba(255,255,255,0.3)"/>
  <rect x="560" y="183" width="200" height="14" rx="4" fill="rgba(255,255,255,0.2)"/>
  <rect x="500" y="260" width="600" height="60" rx="8" fill="rgba(255,255,255,0.1)"/>
  <rect x="520" y="278" width="24" height="24" rx="4" fill="#818cf8"/>
  <rect x="560" y="283" width="240" height="14" rx="4" fill="rgba(255,255,255,0.2)"/>
  <rect x="500" y="360" width="600" height="60" rx="8" fill="rgba(255,255,255,0.1)"/>
  <rect x="520" y="378" width="24" height="24" rx="4" fill="rgba(255,255,255,0.3)"/>
  <rect x="560" y="383" width="180" height="14" rx="4" fill="rgba(255,255,255,0.2)"/>
  <circle cx="1000" y="190" r="16" fill="#34d399" opacity="0.8"/>
  <text x="600" y="80" font-family="system-ui, sans-serif" font-size="18" font-weight="600" fill="rgba(255,255,255,0.6)">AI MARKETING LAB</text>
</svg>
