<svg xmlns="http://www.w3.org/2000/svg" width="1200" height="630" viewBox="0 0 1200 630">
  <defs>
    <linearGradient id="bg" x1="0%" y1="0%" x2="100%" y2="100%">
      <stop offset="0%" style="stop-color:#0ea5e9"/>
      <stop offset="100%" style="stop-color:#6366f1"/>
    </linearGradient>
  </defs>
  <rect width="1200" height="630" fill="url(#bg)"/>
  <!-- Nodes -->
  <circle cx="300" cy="200" r="50" fill="rgba(255,255,255,0.15)" stroke="rgba(255,255,255,0.3)" stroke-width="2"/>
  <circle cx="600" cy="140" r="50" fill="rgba(255,255,255,0.15)" stroke="rgba(255,255,255,0.3)" stroke-width="2"/>
  <circle cx="900" cy="200" r="50" fill="rgba(255,255,255,0.15)" stroke="rgba(255,255,255,0.3)" stroke-width="2"/>
  <circle cx="450" cy="380" r="50" fill="rgba(255,255,255,0.15)" stroke="rgba(255,255,255,0.3)" stroke-width="2"/>
  <circle cx="750" cy="380" r="50" fill="rgba(255,255,255,0.15)" stroke="rgba(255,255,255,0.3)" stroke-width="2"/>
  <circle cx="600" cy="500" r="50" fill="rgba(255,255,255,0.2)" stroke="#818cf8" stroke-width="3"/>
  <!-- Connections -->
  <line x1="340" y1="220" x2="560" y2="160" stroke="rgba(255,255,255,0.2)" stroke-width="2"/>
  <line x1="640" y1="160" x2="860" y2="200" stroke="rgba(255,255,255,0.2)" stroke-width="2"/>
  <line x1="320" y1="240" x2="430" y2="350" stroke="rgba(255,255,255,0.2)" stroke-width="2"/>
  <line x1="620" y1="180" x2="740" y2="340" stroke="rgba(255,255,255,0.2)" stroke-width="2"/>
  <line x1="880" y1="240" x2="770" y2="350" stroke="rgba(255,255,255,0.2)" stroke-width="2"/>
  <line x1="470" y1="420" x2="580" y2="470" stroke="rgba(255,255,255,0.2)" stroke-width="2"/>
  <line x1="730" y1="420" x2="620" y2="470" stroke="rgba(255,255,255,0.2)" stroke-width="2"/>
  <!-- Icons inside nodes -->
  <rect x="280" y="188" width="40" height="24" rx="4" fill="rgba(255,255,255,0.4)"/>
  <rect x="580" y="128" width="40" height="24" rx="4" fill="rgba(255,255,255,0.4)"/>
  <rect x="880" y="188" width="40" height="24" rx="4" fill="rgba(255,255,255,0.4)"/>
  <polygon points="600,480 585,510 615,510" fill="rgba(255,255,255,0.5)"/>
  <text x="600" y="70" font-family="system-ui, sans-serif" font-size="18" font-weight="600" fill="rgba(255,255,255,0.6)" text-anchor="middle">AI MARKETING LAB</text>
</svg>
