<svg xmlns="http://www.w3.org/2000/svg" width="1200" height="630" viewBox="0 0 1200 630">
  <defs>
    <linearGradient id="bg" x1="0%" y1="0%" x2="100%" y2="100%">
      <stop offset="0%" style="stop-color:#1e40af"/>
      <stop offset="100%" style="stop-color:#0ea5e9"/>
    </linearGradient>
  </defs>
  <rect width="1200" height="630" fill="url(#bg)"/>
  <!-- Dashboard layout -->
  <rect x="100" y="100" width="1000" height="440" rx="16" fill="rgba(255,255,255,0.06)" stroke="rgba(255,255,255,0.1)" stroke-width="1"/>
  <!-- Sidebar -->
  <rect x="100" y="100" width="200" height="440" rx="16" fill="rgba(255,255,255,0.04)"/>
  <rect x="120" y="130" width="160" height="14" rx="4" fill="rgba(255,255,255,0.2)"/>
  <rect x="120" y="170" width="140" height="10" rx="4" fill="rgba(255,255,255,0.1)"/>
  <rect x="120" y="195" width="120" height="10" rx="4" fill="#818cf8" opacity="0.4"/>
  <rect x="120" y="220" width="140" height="10" rx="4" fill="rgba(255,255,255,0.1)"/>
  <rect x="120" y="245" width="100" height="10" rx="4" fill="rgba(255,255,255,0.1)"/>
  <!-- Main chart area -->
  <rect x="330" y="130" width="740" height="240" rx="10" fill="rgba(255,255,255,0.04)"/>
  <!-- Line chart -->
  <polyline points="370,320 430,290 490,300 550,260 610,240 670,200 730,190 790,170 850,180 910,150 970,140 1030,120" fill="none" stroke="#818cf8" stroke-width="3" opacity="0.8"/>
  <polyline points="370,330 430,325 490,320 550,310 610,305 670,280 730,275 790,265 850,270 910,255 970,250 1030,240" fill="none" stroke="#34d399" stroke-width="2" opacity="0.5" stroke-dasharray="6,4"/>
  <!-- Data points -->
  <circle cx="670" cy="200" r="5" fill="#818cf8"/>
  <circle cx="850" cy="180" r="5" fill="#818cf8"/>
  <circle cx="1030" cy="120" r="5" fill="#818cf8"/>
  <!-- Metrics row -->
  <rect x="330" y="400" width="220" height="110" rx="10" fill="rgba(255,255,255,0.04)"/>
  <rect x="350" y="420" width="100" height="10" rx="3" fill="rgba(255,255,255,0.15)"/>
  <text x="350" y="460" font-family="system-ui, sans-serif" font-size="28" font-weight="700" fill="rgba(255,255,255,0.7)">+19%</text>
  <rect x="350" y="480" width="80" height="8" rx="3" fill="#34d399" opacity="0.4"/>
  <rect x="590" y="400" width="220" height="110" rx="10" fill="rgba(255,255,255,0.04)"/>
  <rect x="610" y="420" width="80" height="10" rx="3" fill="rgba(255,255,255,0.15)"/>
  <text x="610" y="460" font-family="system-ui, sans-serif" font-size="28" font-weight="700" fill="rgba(255,255,255,0.7)">$14.2</text>
  <rect x="610" y="480" width="60" height="8" rx="3" fill="#818cf8" opacity="0.4"/>
  <rect x="850" y="400" width="220" height="110" rx="10" fill="rgba(255,255,255,0.04)"/>
  <rect x="870" y="420" width="90" height="10" rx="3" fill="rgba(255,255,255,0.15)"/>
  <text x="870" y="460" font-family="system-ui, sans-serif" font-size="28" font-weight="700" fill="rgba(255,255,255,0.7)">4.2x</text>
  <rect x="870" y="480" width="70" height="8" rx="3" fill="#34d399" opacity="0.4"/>
  <text x="600" y="60" font-family="system-ui, sans-serif" font-size="18" font-weight="600" fill="rgba(255,255,255,0.5)" text-anchor="middle">AI MARKETING LAB</text>
</svg>
